<svg xmlns="http://www.w3.org/2000/svg" xmlns:xlink="http://www.w3.org/1999/xlink" width="1123" zoomAndPan="magnify" viewBox="0 0 842.25 1190.249948" height="1587" preserveAspectRatio="xMidYMid meet" version="1.0"><defs><clipPath id="de3193c73b"><path d="M 0 0.15625 L 841.5 0.15625 L 841.5 1189.347656 L 0 1189.347656 Z M 0 0.15625 " clip-rule="nonzero"/></clipPath><clipPath id="4816a2a240"><path d="M 0 0.15625 L 841.289062 0.15625 L 841.289062 1189.042969 L 0 1189.042969 Z M 0 0.15625 " clip-rule="nonzero"/></clipPath><clipPath id="6ef0e979ad"><path d="M 276.4375 422.058594 L 617.296875 422.058594 L 617.296875 767.414062 L 276.4375 767.414062 Z M 276.4375 422.058594 " clip-rule="nonzero"/></clipPath><clipPath id="abee3b5a19"><rect x="0" width="842" y="0" height="1190"/></clipPath></defs><g clip-path="url(#de3193c73b)"><path fill="#ffffff" d="M 0 0.15625 L 841.5 0.15625 L 841.5 1189.347656 L 0 1189.347656 Z M 0 0.15625 " fill-opacity="1" fill-rule="nonzero"/><g transform="matrix(1, 0, 0, 1, 0, 0.000000000000098033)"><g clip-path="url(#abee3b5a19)"><g clip-path="url(#4816a2a240)"><path fill="#ffffff" d="M 0 0.15625 L 841.289062 0.15625 L 841.289062 1189.042969 L 0 1189.042969 Z M 0 0.15625 " fill-opacity="1" fill-rule="nonzero"/></g><g clip-path="url(#6ef0e979ad)"><path fill="#12643f" d="M 519.992188 735.308594 L 519.992188 757.9375 C 519.992188 758.558594 519.929688 759.175781 519.808594 759.789062 C 519.6875 760.398438 519.503906 760.992188 519.265625 761.570312 C 519.027344 762.144531 518.734375 762.691406 518.386719 763.210938 C 518.042969 763.730469 517.648438 764.207031 517.207031 764.648438 C 516.765625 765.089844 516.285156 765.484375 515.769531 765.832031 C 515.25 766.175781 514.703125 766.46875 514.128906 766.707031 C 513.550781 766.949219 512.957031 767.128906 512.347656 767.25 C 511.734375 767.375 511.117188 767.433594 510.496094 767.4375 L 288.527344 767.4375 C 287.902344 767.433594 287.285156 767.375 286.675781 767.25 C 286.0625 767.128906 285.46875 766.949219 284.894531 766.707031 C 284.320312 766.46875 283.769531 766.175781 283.253906 765.832031 C 282.734375 765.484375 282.253906 765.089844 281.816406 764.648438 C 281.375 764.207031 280.980469 763.730469 280.632812 763.210938 C 280.285156 762.691406 279.992188 762.144531 279.753906 761.570312 C 279.515625 760.992188 279.335938 760.398438 279.210938 759.789062 C 279.089844 759.175781 279.027344 758.558594 279.027344 757.9375 L 279.027344 735.308594 C 279.027344 734.6875 279.089844 734.066406 279.210938 733.457031 C 279.332031 732.84375 279.511719 732.25 279.75 731.671875 C 279.988281 731.09375 280.28125 730.546875 280.628906 730.027344 C 280.972656 729.507812 281.367188 729.027344 281.808594 728.585938 C 282.25 728.144531 282.730469 727.75 283.246094 727.402344 C 283.765625 727.054688 284.3125 726.761719 284.890625 726.523438 C 285.464844 726.28125 286.0625 726.101562 286.671875 725.980469 C 287.285156 725.855469 287.902344 725.792969 288.527344 725.792969 L 510.496094 725.792969 C 511.117188 725.792969 511.738281 725.855469 512.347656 725.980469 C 512.960938 726.101562 513.554688 726.28125 514.132812 726.523438 C 514.707031 726.761719 515.253906 727.054688 515.773438 727.402344 C 516.292969 727.75 516.773438 728.144531 517.210938 728.585938 C 517.652344 729.027344 518.046875 729.507812 518.394531 730.027344 C 518.738281 730.546875 519.03125 731.09375 519.269531 731.671875 C 519.511719 732.25 519.691406 732.84375 519.8125 733.457031 C 519.933594 734.066406 519.992188 734.6875 519.992188 735.308594 Z M 309.6875 601.484375 C 308.113281 601.105469 306.542969 600.636719 305.003906 600.152344 L 305.003906 451.609375 C 305.003906 435.304688 318.253906 422.058594 334.558594 422.058594 L 464.515625 422.058594 C 480.820312 422.058594 494.066406 435.304688 494.066406 451.609375 L 494.066406 716.398438 L 305.003906 716.398438 L 305.003906 677.550781 C 319.859375 683.285156 348.859375 676.910156 358.222656 690.332031 C 356.691406 694.058594 354.320312 697.132812 351.105469 699.554688 C 346.199219 703.304688 351.882812 710.75 356.769531 707.050781 C 362.503906 703.097656 365.335938 697.242188 368.394531 691.316406 C 374.699219 681.4375 379.398438 670.296875 380.933594 658.601562 C 414.269531 644.75 417.65625 602.625 412.285156 571.464844 C 411.867188 568.632812 411.386719 565.351562 408.171875 564.625 C 407.746094 564.523438 407.3125 564.480469 406.875 564.5 C 406.4375 564.519531 406.011719 564.597656 405.59375 564.734375 C 405.179688 564.871094 404.789062 565.0625 404.425781 565.308594 C 404.0625 565.554688 403.738281 565.84375 403.457031 566.179688 C 390.796875 581.359375 370.882812 585.125 360.15625 586.007812 C 343.039062 587.457031 328.425781 592.261719 315.316406 602.484375 C 313.449219 602.191406 311.550781 601.914062 309.6875 601.484375 Z M 448.726562 626.339844 C 422.164062 633.058594 430.730469 671.832031 457.625 666.773438 C 458.953125 666.484375 460.238281 666.070312 461.484375 665.523438 C 462.730469 664.980469 463.914062 664.320312 465.027344 663.542969 C 466.140625 662.761719 467.167969 661.882812 468.109375 660.902344 C 469.050781 659.917969 469.882812 658.851562 470.613281 657.707031 C 480.699219 642.710938 466.207031 622.125 448.726562 626.339844 Z M 473.84375 596.25 C 472.980469 568.875 433.339844 568.90625 432.476562 596.25 C 433.339844 623.523438 472.980469 623.574219 473.84375 596.25 Z M 323.675781 555.074219 C 323.675781 555.382812 323.707031 555.6875 323.765625 555.992188 C 323.828125 556.296875 323.917969 556.589844 324.035156 556.878906 C 324.152344 557.164062 324.300781 557.433594 324.472656 557.691406 C 324.644531 557.949219 324.839844 558.1875 325.058594 558.40625 C 325.277344 558.625 325.515625 558.820312 325.773438 558.992188 C 326.03125 559.164062 326.300781 559.3125 326.585938 559.429688 C 326.875 559.546875 327.167969 559.636719 327.472656 559.699219 C 327.773438 559.757812 328.082031 559.789062 328.390625 559.789062 L 470.679688 559.789062 C 470.992188 559.789062 471.296875 559.757812 471.601562 559.699219 C 471.90625 559.636719 472.199219 559.546875 472.484375 559.429688 C 472.773438 559.3125 473.042969 559.164062 473.300781 558.992188 C 473.558594 558.820312 473.796875 558.625 474.015625 558.40625 C 474.234375 558.1875 474.429688 557.949219 474.601562 557.691406 C 474.773438 557.433594 474.917969 557.164062 475.039062 556.878906 C 475.15625 556.589844 475.246094 556.296875 475.304688 555.992188 C 475.367188 555.6875 475.398438 555.382812 475.398438 555.074219 L 475.398438 459.644531 C 475.398438 459.332031 475.367188 459.027344 475.304688 458.722656 C 475.246094 458.421875 475.15625 458.125 475.039062 457.839844 C 474.917969 457.554688 474.773438 457.285156 474.601562 457.027344 C 474.429688 456.769531 474.234375 456.53125 474.015625 456.316406 C 473.796875 456.097656 473.558594 455.902344 473.300781 455.730469 C 473.042969 455.558594 472.769531 455.414062 472.484375 455.296875 C 472.199219 455.179688 471.902344 455.089844 471.601562 455.03125 C 471.296875 454.972656 470.992188 454.945312 470.679688 454.945312 L 328.390625 454.945312 C 328.082031 454.945312 327.777344 454.972656 327.472656 455.03125 C 327.167969 455.089844 326.875 455.179688 326.589844 455.296875 C 326.300781 455.414062 326.03125 455.558594 325.773438 455.730469 C 325.515625 455.902344 325.277344 456.097656 325.058594 456.316406 C 324.839844 456.53125 324.644531 456.769531 324.472656 457.027344 C 324.300781 457.285156 324.152344 457.554688 324.035156 457.839844 C 323.917969 458.125 323.828125 458.421875 323.765625 458.722656 C 323.707031 459.027344 323.675781 459.332031 323.675781 459.644531 Z M 350.1875 550.183594 C 352.453125 522.117188 381.054688 500.59375 408.65625 506.398438 L 424.546875 484.773438 C 426.792969 481.664062 430.78125 480.730469 434.183594 482.511719 C 434.589844 482.714844 434.976562 482.957031 435.339844 483.230469 C 435.703125 483.503906 436.039062 483.8125 436.347656 484.144531 C 436.65625 484.480469 436.929688 484.839844 437.171875 485.226562 C 437.417969 485.613281 437.625 486.015625 437.792969 486.4375 C 437.964844 486.859375 438.09375 487.292969 438.1875 487.742188 C 438.277344 488.1875 438.328125 488.636719 438.339844 489.09375 C 438.351562 489.546875 438.320312 490 438.25 490.449219 C 438.175781 490.898438 438.066406 491.339844 437.914062 491.769531 L 429.695312 515.777344 C 440.523438 524.101562 447.554688 536.78125 448.917969 550.375 L 465.984375 550.375 L 465.984375 464.359375 L 333.089844 464.359375 L 333.089844 550.375 L 350.15625 550.375 C 350.175781 550.3125 350.1875 550.25 350.1875 550.183594 Z M 515.382812 563.363281 L 503.480469 563.363281 L 503.480469 620.015625 L 515.382812 620.015625 C 515.742188 620.015625 516.101562 619.980469 516.457031 619.910156 C 516.8125 619.839844 517.15625 619.734375 517.492188 619.597656 C 517.824219 619.457031 518.144531 619.289062 518.445312 619.089844 C 518.746094 618.886719 519.023438 618.660156 519.277344 618.402344 C 519.535156 618.148438 519.761719 617.867188 519.964844 617.566406 C 520.164062 617.265625 520.335938 616.949219 520.472656 616.617188 C 520.609375 616.28125 520.714844 615.9375 520.785156 615.582031 C 520.855469 615.226562 520.890625 614.867188 520.890625 614.507812 L 520.890625 568.875 C 520.890625 568.511719 520.855469 568.152344 520.785156 567.796875 C 520.714844 567.445312 520.609375 567.097656 520.472656 566.765625 C 520.335938 566.429688 520.164062 566.113281 519.964844 565.8125 C 519.761719 565.511719 519.535156 565.234375 519.277344 564.976562 C 519.023438 564.722656 518.746094 564.492188 518.445312 564.292969 C 518.144531 564.089844 517.824219 563.921875 517.492188 563.78125 C 517.15625 563.644531 516.8125 563.539062 516.457031 563.46875 C 516.101562 563.398438 515.742188 563.363281 515.382812 563.363281 Z M 575.820312 491.578125 L 569.011719 487.761719 L 565.664062 498.730469 C 565.566406 499.34375 565.566406 499.960938 565.664062 500.574219 C 565.761719 501.191406 565.949219 501.777344 566.230469 502.332031 C 566.507812 502.890625 566.867188 503.390625 567.304688 503.832031 C 567.742188 504.277344 568.238281 504.640625 568.789062 504.929688 L 582.296875 511.289062 L 578.910156 495.863281 C 578.726562 494.960938 578.367188 494.136719 577.828125 493.386719 C 577.285156 492.640625 576.617188 492.039062 575.820312 491.578125 Z M 560.566406 472.234375 L 580.414062 483.359375 C 589.117188 488.089844 588.773438 498.902344 591.070312 507.347656 L 592.589844 514.308594 L 609.535156 511.875 L 606.476562 490.457031 C 605.09375 484.445312 608.585938 479.023438 611.140625 475.03125 C 613.488281 472.0625 612.574219 467.347656 609.222656 465.515625 C 596.785156 458.539062 584.328125 451.5 571.847656 444.410156 C 568.496094 442.386719 563.691406 444.304688 562.675781 448.070312 L 561.863281 450.746094 C 560.429688 455.429688 559.011719 460.09375 557.628906 464.789062 C 557.414062 465.484375 557.320312 466.195312 557.347656 466.921875 C 557.375 467.648438 557.523438 468.351562 557.789062 469.027344 C 558.054688 469.707031 558.429688 470.320312 558.90625 470.867188 C 559.378906 471.417969 559.933594 471.875 560.566406 472.234375 Z M 616.355469 521.773438 C 616.148438 520.234375 614.835938 520.648438 613.730469 520.804688 L 589.894531 524.207031 C 589.71875 524.226562 589.554688 524.28125 589.402344 524.371094 C 589.25 524.457031 589.117188 524.570312 589.007812 524.710938 C 588.898438 524.847656 588.824219 525.003906 588.777344 525.175781 C 588.730469 525.34375 588.714844 525.515625 588.738281 525.691406 L 589.878906 533.359375 C 589.898438 533.539062 589.953125 533.703125 590.042969 533.859375 C 590.128906 534.015625 590.246094 534.144531 590.386719 534.253906 C 590.527344 534.363281 590.683594 534.441406 590.855469 534.488281 C 591.03125 534.53125 591.203125 534.542969 591.378906 534.519531 L 616.304688 530.941406 C 616.480469 530.917969 616.644531 530.863281 616.796875 530.773438 C 616.949219 530.683594 617.082031 530.570312 617.1875 530.429688 C 617.292969 530.289062 617.371094 530.132812 617.414062 529.960938 C 617.460938 529.789062 617.46875 529.617188 617.445312 529.441406 Z M 302.308594 666.394531 C 319.773438 675.03125 341.707031 667.238281 359.808594 678.761719 C 358.878906 670.78125 353.9375 663.285156 346.097656 659.15625 L 322.726562 654.804688 L 314.953125 653.351562 C 308.925781 652.109375 310.550781 643.074219 316.679688 644.09375 L 340.863281 648.601562 L 337.148438 636.289062 C 335.4375 630.34375 344.28125 627.667969 346.148438 633.558594 L 351.570312 651.453125 C 359.621094 656.0625 365.320312 663.335938 367.910156 671.539062 C 378.238281 646.617188 368.152344 626.320312 342.832031 617.410156 C 334.800781 614.300781 325.421875 612.96875 316.128906 612.175781 C 302.328125 610.515625 287.613281 605.058594 277.402344 596.300781 C 275.332031 613.988281 274.242188 653.09375 302.308594 666.394531 Z M 403.835938 579.082031 C 377.496094 600.929688 354.09375 590.257812 329.582031 604.265625 C 346.320312 607.285156 363.78125 614.125 373.957031 628.34375 C 378.066406 634.109375 380.449219 640.984375 381.125 647.996094 C 404.667969 634.542969 406.410156 603.261719 403.835938 579.082031 Z M 400.347656 515 C 379.863281 514.242188 361.761719 530.476562 359.65625 550.375 L 376.390625 550.375 L 377.875 548.355469 L 402.265625 515.121094 C 401.625 515.070312 400.96875 515 400.347656 515 Z M 426.414062 525.347656 L 417.84375 550.375 L 439.4375 550.375 C 439.417969 550.0625 439.332031 549.769531 439.296875 549.460938 C 438.003906 540.253906 433.425781 531.496094 426.414062 525.347656 Z M 388.066406 550.375 L 407.894531 550.375 L 425.238281 499.714844 Z M 453.183594 607.496094 C 468.039062 607.113281 467.988281 585.351562 453.183594 584.953125 C 438.3125 585.351562 438.261719 607.113281 453.183594 607.496094 Z M 453.148438 635.269531 C 437.621094 635.75 438.675781 658.828125 454.203125 657.738281 C 468.453125 656.304688 467.296875 635.476562 453.148438 635.269531 Z M 599.671875 695.429688 C 599.671875 700.4375 595.078125 704.511719 589.410156 704.511719 L 540.894531 704.511719 C 535.246094 704.511719 530.652344 700.4375 530.652344 695.429688 L 530.652344 675.910156 C 530.652344 670.917969 535.246094 666.84375 540.894531 666.84375 C 551.742188 666.84375 560.550781 658.550781 560.550781 648.378906 L 560.550781 605.851562 C 560.550781 595.644531 551.742188 587.355469 540.894531 587.355469 L 530.304688 587.355469 L 530.304688 596.769531 L 540.894531 596.769531 C 546.542969 596.769531 551.136719 600.84375 551.136719 605.851562 L 551.136719 648.378906 C 551.136719 653.371094 546.542969 657.429688 540.894531 657.429688 C 530.0625 657.429688 521.238281 665.71875 521.238281 675.910156 L 521.238281 695.429688 C 521.238281 705.617188 530.0625 713.910156 540.894531 713.910156 L 589.410156 713.910156 C 600.257812 713.910156 609.085938 705.617188 609.085938 695.429688 L 609.085938 541.496094 L 599.671875 542.84375 Z M 522.015625 455.636719 L 535.367188 450.921875 L 550.046875 457.378906 L 552.757812 448.292969 L 537.457031 441.558594 C 536.324219 441.054688 535.171875 441.007812 534 441.421875 L 518.871094 446.757812 C 513.085938 448.917969 516.140625 457.605469 522.015625 455.636719 Z M 522.015625 455.636719 " fill-opacity="1" fill-rule="nonzero"/></g></g></g></g></svg>